<svg xmlns="http://www.w3.org/2000/svg" width="20.343" height="16" viewBox="0 0 20.343 16"><path d="M16.6,16.306c0-3.2-3.723-5.809-8.3-5.809S0,13.1,0,16.306c0,1.818,1.169,3.485,3.214,4.594a11.091,11.091,0,0,1-1.6,3.709.185.185,0,0,0,.142.3h.017a10.75,10.75,0,0,0,6.136-2.8c.128,0,.257.006.387.006C12.876,22.114,16.6,19.508,16.6,16.306Z" transform="translate(0 -10.497)" fill="#8e9bad"/><path d="M53.1,27.04c0-2.13-1.648-3.995-4.1-5.005a5.414,5.414,0,0,1,1.45,3.594c0,3.677-4.11,6.67-9.162,6.67h-.009a11.3,11.3,0,0,0,3.519.549c.13,0,.259,0,.387-.007a10.748,10.748,0,0,0,6.137,2.8h.017a.185.185,0,0,0,.142-.3,11.088,11.088,0,0,1-1.6-3.709C51.927,30.526,53.1,28.858,53.1,27.04Z" transform="translate(-32.753 -19.645)" fill="#8e9bad"/></svg>